<?xml version="1.0" encoding="utf-8"?>
<svg version="1.1" xmlns:xlink="http://www.w3.org/1999/xlink" width="71px" height="83px" xmlns="http://www.w3.org/2000/svg">
  <g transform="matrix(1 0 0 1 -30 -30 )">
    <path d="M 21.819020581973028 18.617291414752113  L 30.08303761533002 32.96916565900847  C 29.74710196356754 33.57134220072552  25.430328838419683 41.19891172914148  17.132718239886444 55.85187424425635  C 16.22569198012775 57.390769850866576  15.133901111899693 58.1602176541717  13.85734563520227 58  L 1.8140525195173882 58  C 1.1085876508161816 58.1602176541717  0.5878873905843388 57.87585650947198  0.2519517388218595 57.30713422007255  C -0.08398391294061981 56.73841193067311  -0.08398391294061981 56.13623538895606  0.2519517388218595 55.5006045949214  L 13.000709723207947 33.019347037484884  C 13.034303288384198 33.019347037484884  13.034303288384198 33.00261991132608  13.000709723207947 32.96916565900847  L 4.887863733144074 18.968561064087062  C 4.4847409510290985 18.232567513099553  4.467944168440975 17.613663845223705  4.837473385379702 17.11185006045949  C 5.1398154719659335 16.610036275695283  5.677312514785901 16.35912938331318  6.4499645138396025 17  L 18.493257629524486 17  C 19.837000236574404 16.35912938331318  20.945587887390584 17.11185006045949  21.819020581973028 18.617291414752113  Z M 69.13555713271823 0  C 69.8746155665957 0  70.39531582682753 0.2509068923821026  70.69765791341378 0.7527206771463079  C 71.06718713035251 1.2879887142281254  71.06718713035251 1.906892382103993  70.69765791341378 2.609431680773882  L 44.09155429382541 49.4788391777509  L 44.09155429382541 49.52902055622733  L 61.022711142654366 80.39056831922612  C 61.392240359593096 81.0596533655784  61.409037142181226 81.67855703345425  61.073101490418736 82.24727932285369  C 60.73716583865627 82.7490931076179  60.19966879583629 83  59.460610361958835 83  L 47.41731724627395 83  C 46.00638750887154 83  44.89779985805536 82.24727932285369  44.09155429382541 80.74183796856107  L 27.009226401703334 49.52902055622733  C 27.613910574875796 48.45848448206368  36.533002129169624 32.70153164046756  53.766501064584816 2.258162031438933  C 54.60634019399102 0.7527206771463079  55.681334279630946 0  56.99148332150462 0  L 69.13555713271823 0  Z " fill-rule="nonzero" fill="#333333" stroke="none" transform="matrix(1 0 0 1 30 30 )" />
  </g>
</svg>